<svg width="208" height="46" viewBox="0 0 208 46" fill="none" xmlns="http://www.w3.org/2000/svg">
<path d="M0 0L5.45955 5.06376L5.58179 8.37108L0.0495572 3.28392L0 0Z" fill="#050038"/>
<path d="M0 0L5.45955 5.06376L5.58179 8.37108L0.0495572 3.28392L0 0Z" fill="#050038"/>
<path d="M0 7.52539L5.45955 12.5891L5.58179 15.8965L0.0495572 10.8093L0 7.52539Z" fill="#050038"/>
<path d="M0 7.52539L5.45955 12.5891L5.58179 15.8965L0.0495572 10.8093L0 7.52539Z" fill="#050038"/>
<path d="M0 15.0526L5.45955 20.1147L5.58179 23.4237L0.0495572 18.3349L0 15.0526Z" fill="#050038"/>
<path d="M0 15.0526L5.45955 20.1147L5.58179 23.4237L0.0495572 18.3349L0 15.0526Z" fill="#050038"/>
<path d="M0 22.5779L5.45955 27.64L5.58179 30.949L0.0495572 25.8685L0 22.5779Z" fill="#050038"/>
<path d="M0 22.5779L5.45955 27.64L5.58179 30.949L0.0495572 25.8685L0 22.5779Z" fill="#050038"/>
<path d="M0 30.1034L5.45955 35.1655L5.58179 38.4745L0.0495572 33.389L0 30.1034Z" fill="#050038"/>
<path d="M0 30.1034L5.45955 35.1655L5.58179 38.4745L0.0495572 33.389L0 30.1034Z" fill="#050038"/>
<path d="M0 37.6289L5.45955 42.6927L5.58179 46L0.0495572 40.9095L0 37.6289Z" fill="#050038"/>
<path d="M0 37.6289L5.45955 42.6927L5.58179 46L0.0495572 40.9095L0 37.6289Z" fill="#050038"/>
<path d="M18.452 8.56323V10.4935H14.048V19.9492H11.9963V8.56323H18.452Z" fill="#050038"/>
<path d="M24.848 8.56323L28.8737 19.9408H26.6106L23.5348 10.8277L20.3961 19.9458H18.1661L22.3883 8.56825L24.848 8.56323Z" fill="#050038"/>
<path d="M30.6248 9.80826C31.221 9.35056 31.8919 9.00214 32.607 8.7788C33.3824 8.52885 34.1919 8.4042 35.0056 8.40946C36.3734 8.40946 37.3788 8.7398 38.022 9.40049C38.6651 10.0612 38.9873 11.0015 38.9884 12.2215V16.7739C38.9884 17.2852 39.0908 17.6679 39.2973 17.9186C39.5037 18.1693 39.8886 18.2947 40.4536 18.2947L39.8193 19.9408C39.7261 19.9854 39.6271 20.0164 39.5252 20.0327C39.4162 20.0523 39.3056 20.0624 39.1948 20.0628C38.7491 20.0762 38.314 19.9234 37.9724 19.6333C37.6276 19.3212 37.4166 18.8853 37.3844 18.4183C37.0002 18.9268 36.5042 19.3376 35.9356 19.6182C35.2813 19.9449 34.559 20.1083 33.8295 20.0945C33.2937 20.1004 32.7609 20.0145 32.2535 19.8405C31.8053 19.6889 31.3902 19.4511 31.0311 19.1403C30.6945 18.8443 30.4266 18.4768 30.2465 18.064C30.0595 17.6219 29.9631 17.1461 29.9631 16.6652C29.9631 16.1844 30.0595 15.7085 30.2465 15.2664C30.4342 14.8511 30.7174 14.4873 31.0724 14.2052C31.4617 13.9028 31.9047 13.6787 32.3774 13.5451C32.9417 13.3845 33.5258 13.3068 34.1119 13.3145H36.9483V12.5457C36.9483 11.8171 36.7572 11.26 36.375 10.8745C35.9929 10.489 35.4147 10.2968 34.6405 10.2979C34.047 10.2912 33.4592 10.4149 32.9176 10.6606C32.4188 10.8857 31.9522 11.1774 31.53 11.5279L30.6248 9.80826ZM34.2903 14.989C33.722 14.9655 33.1583 15.1014 32.6616 15.3817C32.2387 15.6424 32.0272 16.0552 32.0272 16.6201C32.0252 16.8454 32.0744 17.0681 32.1713 17.271C32.2681 17.4739 32.4099 17.6515 32.5856 17.7899C32.9578 18.1041 33.4704 18.2607 34.1235 18.2596C34.9891 18.2596 35.6757 18.0367 36.1834 17.5911C36.432 17.3789 36.6298 17.1123 36.7617 16.8115C36.8936 16.5107 36.9563 16.1836 36.9449 15.8547V14.989H34.2903Z" fill="#050038"/>
<path d="M42.6011 8.56335C42.9436 8.55332 43.3081 8.54051 43.6946 8.52491C44.0828 8.50987 44.471 8.4965 44.8642 8.48647C45.2573 8.47644 45.6455 8.46809 46.0337 8.46307C46.4219 8.45806 46.7804 8.45472 47.1108 8.45472C47.6834 8.44856 48.2544 8.5188 48.8089 8.66362C49.2757 8.78267 49.7177 8.9853 50.1139 9.26191C50.4723 9.51306 50.7632 9.85049 50.9604 10.2438C51.1577 10.6371 51.2551 11.0738 51.2438 11.5147C51.2586 12.05 51.1142 12.5775 50.8292 13.0288C50.545 13.4598 50.152 13.806 49.6911 14.0315C50.2927 14.1952 50.8284 14.546 51.2224 15.0343C51.5911 15.5377 51.7798 16.1529 51.7576 16.779C51.7576 17.8029 51.3721 18.6023 50.6013 19.1772C49.8304 19.7521 48.6939 20.039 47.1917 20.0379C46.8492 20.0379 46.4825 20.0379 46.0916 20.0379C45.6984 20.0379 45.3019 20.0245 44.8989 20.0145C44.4958 20.0044 44.0993 19.9911 43.7078 19.976C43.3163 19.961 42.948 19.9476 42.606 19.9376L42.6011 8.56335ZM44.6527 13.3146H47.081C47.6017 13.3369 48.1169 13.2001 48.5595 12.9219C48.7401 12.8056 48.8878 12.6439 48.9883 12.4526C49.0887 12.2614 49.1385 12.0471 49.1327 11.8306C49.1437 11.6153 49.097 11.4011 48.9975 11.2104C48.8981 11.0198 48.7496 10.8599 48.5678 10.7476C48.1895 10.507 47.6543 10.385 46.9605 10.385C46.6091 10.385 46.2237 10.385 45.8041 10.385C45.3845 10.385 44.9991 10.3978 44.6478 10.4234L44.6527 13.3146ZM44.6527 18.0491C45.0145 18.0809 45.4143 18.1026 45.852 18.1193C46.2898 18.136 46.678 18.141 47.0364 18.141C47.8811 18.141 48.5193 18.0129 48.951 17.7567C49.1579 17.6408 49.3285 17.4684 49.4433 17.2592C49.5581 17.05 49.6124 16.8124 49.6002 16.5734C49.6127 16.3302 49.5597 16.0881 49.4468 15.8729C49.3339 15.6578 49.1654 15.4776 48.9593 15.3518C48.532 15.0799 47.9566 14.944 47.233 14.944H44.6527V18.0491Z" fill="#050038"/>
<path d="M27.7586 27.0134V38.391H25.707V28.9654H21.0618V38.391H19.0101V27.0134H27.7586Z" fill="#050038"/>
<path d="M32.6732 38.391H30.6248V27.0134C31.198 26.9817 31.8208 26.9599 32.4948 26.9432C33.1688 26.9265 33.7866 26.9215 34.3499 26.9215C34.9585 26.9178 35.5638 27.0138 36.1422 27.2056C36.6629 27.3754 37.1468 27.6442 37.5678 27.9977C37.9707 28.3418 38.2929 28.7722 38.511 29.2578C38.733 29.7812 38.8482 30.3445 38.8496 30.914C38.851 31.4835 38.7387 32.0474 38.5193 32.5718C38.3065 33.0507 37.995 33.478 37.6058 33.8252C37.201 34.1787 36.7327 34.4499 36.2264 34.6241C35.6671 34.8132 35.0799 34.9042 34.4903 34.8931C34.1876 34.8912 33.8853 34.8711 33.585 34.833C33.2547 34.7918 32.9529 34.7405 32.6798 34.6792L32.6732 38.391ZM32.6732 32.764C32.9323 32.8191 33.1943 32.8599 33.4578 32.886C33.7233 32.916 33.9902 32.9316 34.2574 32.9328C34.5791 32.9353 34.8993 32.8886 35.2072 32.7941C35.4845 32.7097 35.7451 32.5768 35.977 32.4014C36.1957 32.2343 36.3737 32.0188 36.4973 31.7713C36.624 31.4998 36.6897 31.2034 36.6897 30.9031C36.6897 30.6029 36.624 30.3064 36.4973 30.0349C36.3674 29.7844 36.1813 29.568 35.9539 29.4032C35.7093 29.2287 35.4365 29.0986 35.1477 29.0189C34.8209 28.9293 34.4836 28.8855 34.145 28.8885C33.9237 28.8885 33.6792 28.8885 33.4132 28.9035C33.1473 28.9186 32.9028 28.9353 32.6814 28.9654L32.6732 32.764Z" fill="#050038"/>
<path d="M46.2517 26.7977C47.0367 26.7864 47.816 26.9329 48.5445 27.2289C49.2089 27.5025 49.8081 27.9161 50.3022 28.4422C50.8007 28.9841 51.1857 29.6225 51.4337 30.319C51.7079 31.0889 51.8439 31.9022 51.8351 32.7205C51.8442 33.5298 51.7093 34.3342 51.437 35.0953C51.1877 35.7887 50.8029 36.4241 50.3055 36.9637C49.8115 37.4903 49.2123 37.9045 48.5478 38.1787C47.0721 38.7535 45.4379 38.7535 43.9622 38.1787C43.2974 37.9049 42.6982 37.4907 42.2045 36.9637C41.7071 36.4241 41.3223 35.7887 41.073 35.0953C40.799 34.3345 40.6625 33.5301 40.6699 32.7205C40.661 31.9034 40.7964 31.0913 41.0697 30.3223C41.3177 29.6258 41.7026 28.9874 42.2012 28.4455C42.6949 27.919 43.2942 27.5053 43.9588 27.2322C44.6871 26.9351 45.4665 26.7874 46.2517 26.7977ZM46.2517 28.8115C45.7585 28.8038 45.2695 28.9035 44.8178 29.104C44.4056 29.2921 44.04 29.5707 43.7474 29.9195C43.4462 30.2849 43.2158 30.7045 43.0685 31.1562C42.9038 31.6596 42.8223 32.187 42.8273 32.7171C42.8227 33.2396 42.9042 33.7593 43.0685 34.2547C43.217 34.7039 43.4473 35.1211 43.7474 35.4847C44.04 35.8335 44.4056 36.1121 44.8178 36.3002C45.2696 36.5001 45.7587 36.5993 46.2517 36.591C46.7393 36.5984 47.2228 36.4992 47.669 36.3002C48.0834 36.1118 48.4517 35.8334 48.7477 35.4847C49.0522 35.1228 49.2855 34.7053 49.4349 34.2547C49.5992 33.7593 49.6807 33.2396 49.6761 32.7171C49.6811 32.187 49.5996 31.6596 49.4349 31.1562C49.2867 30.7031 49.0533 30.2832 48.7477 29.9195C48.4517 29.5708 48.0834 29.2924 47.669 29.104C47.2229 28.9045 46.7394 28.8048 46.2517 28.8115Z" fill="#050038"/>
<path d="M18.452 8.56323V10.4935H14.048V19.9492H11.9963V8.56323H18.452Z" fill="#050038"/>
<path d="M24.848 8.56323L28.8737 19.9408H26.6106L23.5348 10.8277L20.3961 19.9458H18.1661L22.3883 8.56825L24.848 8.56323Z" fill="#050038"/>
<path d="M30.6248 9.80826C31.221 9.35056 31.8919 9.00214 32.607 8.7788C33.3824 8.52885 34.1919 8.4042 35.0056 8.40946C36.3734 8.40946 37.3788 8.7398 38.022 9.40049C38.6651 10.0612 38.9873 11.0015 38.9884 12.2215V16.7739C38.9884 17.2852 39.0908 17.6679 39.2973 17.9186C39.5037 18.1693 39.8886 18.2947 40.4536 18.2947L39.8193 19.9408C39.7261 19.9854 39.6271 20.0164 39.5252 20.0327C39.4162 20.0523 39.3056 20.0624 39.1948 20.0628C38.7491 20.0762 38.314 19.9234 37.9724 19.6333C37.6276 19.3212 37.4166 18.8853 37.3844 18.4183C37.0002 18.9268 36.5042 19.3376 35.9356 19.6182C35.2813 19.9449 34.559 20.1083 33.8295 20.0945C33.2937 20.1004 32.7609 20.0145 32.2535 19.8405C31.8053 19.6889 31.3902 19.4511 31.0311 19.1403C30.6945 18.8443 30.4266 18.4768 30.2465 18.064C30.0595 17.6219 29.9631 17.1461 29.9631 16.6652C29.9631 16.1844 30.0595 15.7085 30.2465 15.2664C30.4342 14.8511 30.7174 14.4873 31.0724 14.2052C31.4617 13.9028 31.9047 13.6787 32.3774 13.5451C32.9417 13.3845 33.5258 13.3068 34.1119 13.3145H36.9483V12.5457C36.9483 11.8171 36.7572 11.26 36.375 10.8745C35.9929 10.489 35.4147 10.2968 34.6405 10.2979C34.047 10.2912 33.4592 10.4149 32.9176 10.6606C32.4188 10.8857 31.9522 11.1774 31.53 11.5279L30.6248 9.80826ZM34.2903 14.989C33.722 14.9655 33.1583 15.1014 32.6616 15.3817C32.2387 15.6424 32.0272 16.0552 32.0272 16.6201C32.0252 16.8454 32.0744 17.0681 32.1713 17.271C32.2681 17.4739 32.4099 17.6515 32.5856 17.7899C32.9578 18.1041 33.4704 18.2607 34.1235 18.2596C34.9891 18.2596 35.6757 18.0367 36.1834 17.5911C36.432 17.3789 36.6298 17.1123 36.7617 16.8115C36.8936 16.5107 36.9563 16.1836 36.9449 15.8547V14.989H34.2903Z" fill="#050038"/>
<path d="M42.6011 8.56335C42.9436 8.55332 43.3081 8.54051 43.6946 8.52491C44.0828 8.50987 44.471 8.4965 44.8642 8.48647C45.2573 8.47644 45.6455 8.46809 46.0337 8.46307C46.4219 8.45806 46.7804 8.45472 47.1108 8.45472C47.6834 8.44856 48.2544 8.5188 48.8089 8.66362C49.2757 8.78267 49.7177 8.9853 50.1139 9.26191C50.4723 9.51306 50.7632 9.85049 50.9604 10.2438C51.1577 10.6371 51.2551 11.0738 51.2438 11.5147C51.2586 12.05 51.1142 12.5775 50.8292 13.0288C50.545 13.4598 50.152 13.806 49.6911 14.0315C50.2927 14.1952 50.8284 14.546 51.2224 15.0343C51.5911 15.5377 51.7798 16.1529 51.7576 16.779C51.7576 17.8029 51.3721 18.6023 50.6013 19.1772C49.8304 19.7521 48.6939 20.039 47.1917 20.0379C46.8492 20.0379 46.4825 20.0379 46.0916 20.0379C45.6984 20.0379 45.3019 20.0245 44.8989 20.0145C44.4958 20.0044 44.0993 19.9911 43.7078 19.976C43.3163 19.961 42.948 19.9476 42.606 19.9376L42.6011 8.56335ZM44.6527 13.3146H47.081C47.6017 13.3369 48.1169 13.2001 48.5595 12.9219C48.7401 12.8056 48.8878 12.6439 48.9883 12.4526C49.0887 12.2614 49.1385 12.0471 49.1327 11.8306C49.1437 11.6153 49.097 11.4011 48.9975 11.2104C48.8981 11.0198 48.7496 10.8599 48.5678 10.7476C48.1895 10.507 47.6543 10.385 46.9605 10.385C46.6091 10.385 46.2237 10.385 45.8041 10.385C45.3845 10.385 44.9991 10.3978 44.6478 10.4234L44.6527 13.3146ZM44.6527 18.0491C45.0145 18.0809 45.4143 18.1026 45.852 18.1193C46.2898 18.136 46.678 18.141 47.0364 18.141C47.8811 18.141 48.5193 18.0129 48.951 17.7567C49.1579 17.6408 49.3285 17.4684 49.4433 17.2592C49.5581 17.05 49.6124 16.8124 49.6002 16.5734C49.6127 16.3302 49.5597 16.0881 49.4468 15.8729C49.3339 15.6578 49.1654 15.4776 48.9593 15.3518C48.532 15.0799 47.9566 14.944 47.233 14.944H44.6527V18.0491Z" fill="#050038"/>
<path d="M27.7586 27.0134V38.391H25.707V28.9654H21.0618V38.391H19.0101V27.0134H27.7586Z" fill="#050038"/>
<path d="M32.6732 38.391H30.6248V27.0134C31.198 26.9817 31.8208 26.9599 32.4948 26.9432C33.1688 26.9265 33.7866 26.9215 34.3499 26.9215C34.9585 26.9178 35.5638 27.0138 36.1422 27.2056C36.6629 27.3754 37.1468 27.6442 37.5678 27.9977C37.9707 28.3418 38.2929 28.7722 38.511 29.2578C38.733 29.7812 38.8482 30.3445 38.8496 30.914C38.851 31.4835 38.7387 32.0474 38.5193 32.5718C38.3065 33.0507 37.995 33.478 37.6058 33.8252C37.201 34.1787 36.7327 34.4499 36.2264 34.6241C35.6671 34.8132 35.0799 34.9042 34.4903 34.8931C34.1876 34.8912 33.8853 34.8711 33.585 34.833C33.2547 34.7918 32.9529 34.7405 32.6798 34.6792L32.6732 38.391ZM32.6732 32.764C32.9323 32.8191 33.1943 32.8599 33.4578 32.886C33.7233 32.916 33.9902 32.9316 34.2574 32.9328C34.5791 32.9353 34.8993 32.8886 35.2072 32.7941C35.4845 32.7097 35.7451 32.5768 35.977 32.4014C36.1957 32.2343 36.3737 32.0188 36.4973 31.7713C36.624 31.4998 36.6897 31.2034 36.6897 30.9031C36.6897 30.6029 36.624 30.3064 36.4973 30.0349C36.3674 29.7844 36.1813 29.568 35.9539 29.4032C35.7093 29.2287 35.4365 29.0986 35.1477 29.0189C34.8209 28.9293 34.4836 28.8855 34.145 28.8885C33.9237 28.8885 33.6792 28.8885 33.4132 28.9035C33.1473 28.9186 32.9028 28.9353 32.6814 28.9654L32.6732 32.764Z" fill="#050038"/>
<path d="M46.2517 26.7977C47.0367 26.7864 47.816 26.9329 48.5445 27.2289C49.2089 27.5025 49.8081 27.9161 50.3022 28.4422C50.8007 28.9841 51.1857 29.6225 51.4337 30.319C51.7079 31.0889 51.8439 31.9022 51.8351 32.7205C51.8442 33.5298 51.7093 34.3342 51.437 35.0953C51.1877 35.7887 50.8029 36.4241 50.3055 36.9637C49.8115 37.4903 49.2123 37.9045 48.5478 38.1787C47.0721 38.7535 45.4379 38.7535 43.9622 38.1787C43.2974 37.9049 42.6982 37.4907 42.2045 36.9637C41.7071 36.4241 41.3223 35.7887 41.073 35.0953C40.799 34.3345 40.6625 33.5301 40.6699 32.7205C40.661 31.9034 40.7964 31.0913 41.0697 30.3223C41.3177 29.6258 41.7026 28.9874 42.2012 28.4455C42.6949 27.919 43.2942 27.5053 43.9588 27.2322C44.6871 26.9351 45.4665 26.7874 46.2517 26.7977ZM46.2517 28.8115C45.7585 28.8038 45.2695 28.9035 44.8178 29.104C44.4056 29.2921 44.04 29.5707 43.7474 29.9195C43.4462 30.2849 43.2158 30.7045 43.0685 31.1562C42.9038 31.6596 42.8223 32.187 42.8273 32.7171C42.8227 33.2396 42.9042 33.7593 43.0685 34.2547C43.217 34.7039 43.4473 35.1211 43.7474 35.4847C44.04 35.8335 44.4056 36.1121 44.8178 36.3002C45.2696 36.5001 45.7587 36.5993 46.2517 36.591C46.7393 36.5984 47.2228 36.4992 47.669 36.3002C48.0834 36.1118 48.4517 35.8334 48.7477 35.4847C49.0522 35.1228 49.2855 34.7053 49.4349 34.2547C49.5992 33.7593 49.6807 33.2396 49.6761 32.7171C49.6811 32.187 49.5996 31.6596 49.4349 31.1562C49.2867 30.7031 49.0533 30.2832 48.7477 29.9195C48.4517 29.5708 48.0834 29.2924 47.669 29.104C47.2229 28.9045 46.7394 28.8048 46.2517 28.8115Z" fill="#050038"/>
<path d="M65.53 19.9C64.53 19.9 63.6967 19.58 63.03 18.94C62.3633 18.2933 62.03 17.4633 62.03 16.45C62.03 15.4367 62.3633 14.61 63.03 13.97C63.6967 13.3233 64.53 13 65.53 13C66.69 13 67.5833 13.5 68.21 14.5L67.21 15.01C67.0433 14.7233 66.8067 14.49 66.5 14.31C66.2 14.13 65.8767 14.04 65.53 14.04C64.87 14.04 64.32 14.2667 63.88 14.72C63.4467 15.1733 63.23 15.75 63.23 16.45C63.23 17.15 63.4467 17.7267 63.88 18.18C64.32 18.6333 64.87 18.86 65.53 18.86C65.8833 18.86 66.21 18.77 66.51 18.59C66.81 18.41 67.0433 18.1767 67.21 17.89L68.21 18.4C67.57 19.4 66.6767 19.9 65.53 19.9Z" fill="#050038"/>
<path d="M71.2964 19.9C70.5497 19.9 69.9497 19.6567 69.4964 19.17C69.0431 18.6767 68.8164 18.0733 68.8164 17.36C68.8164 16.6467 69.0431 16.0467 69.4964 15.56C69.9497 15.0733 70.5497 14.83 71.2964 14.83C72.0497 14.83 72.6531 15.0733 73.1064 15.56C73.5597 16.0467 73.7864 16.6467 73.7864 17.36C73.7864 18.08 73.5597 18.6833 73.1064 19.17C72.6531 19.6567 72.0497 19.9 71.2964 19.9ZM71.2964 18.97C71.7297 18.97 72.0697 18.8167 72.3164 18.51C72.5697 18.1967 72.6964 17.8133 72.6964 17.36C72.6964 16.9133 72.5697 16.5367 72.3164 16.23C72.0697 15.9167 71.7297 15.76 71.2964 15.76C70.8697 15.76 70.5297 15.9167 70.2764 16.23C70.0297 16.5367 69.9064 16.9133 69.9064 17.36C69.9064 17.8133 70.0297 18.1967 70.2764 18.51C70.5297 18.8167 70.8697 18.97 71.2964 18.97Z" fill="#050038"/>
<path d="M78.7273 19.78H77.5473L76.2973 18L75.0373 19.78H73.8673L75.6373 17.3L73.9673 14.95H75.1473L76.2973 16.59L77.4373 14.95H78.6173L76.9473 17.3L78.7273 19.78Z" fill="#050038"/>
<path d="M82.0582 19.9C81.4182 19.9 80.9015 19.6367 80.5082 19.11V21.62H79.4582V14.95H80.5082V15.61C80.8949 15.09 81.4115 14.83 82.0582 14.83C82.6915 14.83 83.2049 15.0567 83.5982 15.51C83.9982 15.9633 84.1982 16.58 84.1982 17.36C84.1982 18.14 83.9982 18.76 83.5982 19.22C83.2049 19.6733 82.6915 19.9 82.0582 19.9ZM81.7482 18.97C82.1615 18.97 82.4915 18.82 82.7382 18.52C82.9849 18.22 83.1082 17.8333 83.1082 17.36C83.1082 16.8867 82.9849 16.5033 82.7382 16.21C82.4915 15.91 82.1615 15.76 81.7482 15.76C81.5082 15.76 81.2715 15.8233 81.0382 15.95C80.8049 16.0767 80.6282 16.23 80.5082 16.41V18.32C80.6282 18.5 80.8049 18.6533 81.0382 18.78C81.2715 18.9067 81.5082 18.97 81.7482 18.97Z" fill="#050038"/>
<path d="M89.2395 19.78H88.1895V19.26C87.8161 19.6867 87.2961 19.9 86.6295 19.9C86.1895 19.9 85.7995 19.76 85.4595 19.48C85.1195 19.1933 84.9495 18.8 84.9495 18.3C84.9495 17.7867 85.1161 17.3967 85.4495 17.13C85.7895 16.8633 86.1828 16.73 86.6295 16.73C87.3161 16.73 87.8361 16.9367 88.1895 17.35V16.63C88.1895 16.35 88.0861 16.13 87.8795 15.97C87.6728 15.81 87.3995 15.73 87.0595 15.73C86.5195 15.73 86.0428 15.9333 85.6295 16.34L85.1995 15.61C85.7461 15.09 86.4228 14.83 87.2295 14.83C87.8228 14.83 88.3061 14.97 88.6795 15.25C89.0528 15.53 89.2395 15.9733 89.2395 16.58V19.78ZM87.0395 19.18C87.5661 19.18 87.9495 19.0133 88.1895 18.68V17.95C87.9495 17.6167 87.5661 17.45 87.0395 17.45C86.7395 17.45 86.4928 17.53 86.2995 17.69C86.1061 17.85 86.0095 18.06 86.0095 18.32C86.0095 18.58 86.1061 18.79 86.2995 18.95C86.4928 19.1033 86.7395 19.18 87.0395 19.18Z" fill="#050038"/>
<path d="M91.6508 19.78H90.6008V14.95H91.6508V16.85H93.8708V14.95H94.9208V19.78H93.8708V17.77H91.6508V19.78Z" fill="#050038"/>
<path d="M97.3144 19.78H96.1144L97.3044 17.98C96.971 17.9067 96.6977 17.74 96.4844 17.48C96.2777 17.22 96.1744 16.89 96.1744 16.49C96.1744 16.0567 96.3144 15.6933 96.5944 15.4C96.881 15.1 97.2744 14.95 97.7744 14.95H100.534V19.78H99.4844V18.03H98.3744L97.3144 19.78ZM97.9044 17.11H99.4844V15.87H97.9044C97.7044 15.87 97.5444 15.93 97.4244 16.05C97.3044 16.1633 97.2444 16.31 97.2444 16.49C97.2444 16.6767 97.301 16.8267 97.4144 16.94C97.5344 17.0533 97.6977 17.11 97.9044 17.11Z" fill="#050038"/>
<path d="M104.12 19.9C103.387 19.9 102.78 19.6667 102.3 19.2C101.827 18.7267 101.59 18.1133 101.59 17.36C101.59 16.6533 101.82 16.0567 102.28 15.57C102.747 15.0767 103.333 14.83 104.04 14.83C104.753 14.83 105.327 15.0767 105.76 15.57C106.2 16.0633 106.42 16.6933 106.42 17.46V17.71H102.69C102.73 18.09 102.887 18.4067 103.16 18.66C103.433 18.9133 103.79 19.04 104.23 19.04C104.477 19.04 104.723 18.9933 104.97 18.9C105.223 18.8067 105.433 18.6767 105.6 18.51L106.08 19.2C105.593 19.6667 104.94 19.9 104.12 19.9ZM105.4 16.97C105.387 16.6367 105.263 16.34 105.03 16.08C104.803 15.82 104.473 15.69 104.04 15.69C103.627 15.69 103.303 15.82 103.07 16.08C102.837 16.3333 102.707 16.63 102.68 16.97H105.4Z" fill="#050038"/>
<path d="M112.866 19.78H111.816V16.42L110.376 19.78H109.956L108.506 16.42V19.78H107.456V14.95H108.826L110.166 18.07L111.486 14.95H112.866V19.78Z" fill="#050038"/>
<path d="M119.392 19.9C118.752 19.9 118.236 19.6367 117.842 19.11V21.62H116.792V14.95H117.842V15.61C118.229 15.09 118.746 14.83 119.392 14.83C120.026 14.83 120.539 15.0567 120.932 15.51C121.332 15.9633 121.532 16.58 121.532 17.36C121.532 18.14 121.332 18.76 120.932 19.22C120.539 19.6733 120.026 19.9 119.392 19.9ZM119.082 18.97C119.496 18.97 119.826 18.82 120.072 18.52C120.319 18.22 120.442 17.8333 120.442 17.36C120.442 16.8867 120.319 16.5033 120.072 16.21C119.826 15.91 119.496 15.76 119.082 15.76C118.842 15.76 118.606 15.8233 118.372 15.95C118.139 16.0767 117.962 16.23 117.842 16.41V18.32C117.962 18.5 118.139 18.6533 118.372 18.78C118.606 18.9067 118.842 18.97 119.082 18.97Z" fill="#050038"/>
<path d="M122.363 21.67L122.523 20.73C122.643 20.7833 122.777 20.81 122.923 20.81C123.263 20.81 123.493 20.67 123.613 20.39L123.853 19.84L121.873 14.95H122.993L124.403 18.57L125.813 14.95H126.943L124.613 20.65C124.327 21.3633 123.773 21.7267 122.953 21.74C122.733 21.74 122.537 21.7167 122.363 21.67Z" fill="#050038"/>
<path d="M132.123 19.78H130.803L129.323 17.79L128.653 18.48V19.78H127.603V14.95H128.653V17.28L130.783 14.95H132.083L130.073 17.14L132.123 19.78Z" fill="#050038"/>
<path d="M133.876 19.78H132.866V14.95H133.916V18.2L136.136 14.95H137.186V19.78H136.136V16.44L133.876 19.78Z" fill="#050038"/>
<path d="M139.85 19.4C139.85 19.7333 139.763 20.05 139.59 20.35C139.423 20.6567 139.197 20.91 138.91 21.11L138.44 20.72C138.607 20.62 138.76 20.48 138.9 20.3C139.04 20.12 139.127 19.9467 139.16 19.78C139.1 19.8 139.043 19.81 138.99 19.81C138.817 19.81 138.673 19.7533 138.56 19.64C138.447 19.52 138.39 19.3667 138.39 19.18C138.39 18.9933 138.457 18.8333 138.59 18.7C138.723 18.56 138.883 18.49 139.07 18.49C139.283 18.49 139.467 18.5733 139.62 18.74C139.773 18.9 139.85 19.12 139.85 19.4Z" fill="#050038"/>
<path d="M144.62 19.78H143.57V14.95H144.62V16.85H146.84V14.95H147.89V19.78H146.84V17.77H144.62V19.78Z" fill="#050038"/>
<path d="M151.433 19.9C150.686 19.9 150.086 19.6567 149.633 19.17C149.18 18.6767 148.953 18.0733 148.953 17.36C148.953 16.6467 149.18 16.0467 149.633 15.56C150.086 15.0733 150.686 14.83 151.433 14.83C152.186 14.83 152.79 15.0733 153.243 15.56C153.696 16.0467 153.923 16.6467 153.923 17.36C153.923 18.08 153.696 18.6833 153.243 19.17C152.79 19.6567 152.186 19.9 151.433 19.9ZM151.433 18.97C151.866 18.97 152.206 18.8167 152.453 18.51C152.706 18.1967 152.833 17.8133 152.833 17.36C152.833 16.9133 152.706 16.5367 152.453 16.23C152.206 15.9167 151.866 15.76 151.433 15.76C151.006 15.76 150.666 15.9167 150.413 16.23C150.166 16.5367 150.043 16.9133 150.043 17.36C150.043 17.8133 150.166 18.1967 150.413 18.51C150.666 18.8167 151.006 18.97 151.433 18.97Z" fill="#050038"/>
<path d="M158.646 14.95V15.87H156.036V19.78H154.986V14.95H158.646Z" fill="#050038"/>
<path d="M160.517 19.78H159.507V14.95H160.557V18.2L162.777 14.95H163.827V19.78H162.777V16.44L160.517 19.78Z" fill="#050038"/>
<path d="M168.769 19.78H167.759V14.95H168.809V18.2L171.029 14.95H172.079V19.78H171.029V16.44L168.769 19.78Z" fill="#050038"/>
<path d="M176.711 19.78H175.391L177.441 17.14L175.431 14.95H176.731L178.461 16.84V14.95H179.511V16.84L181.241 14.95H182.541L180.531 17.14L182.581 19.78H181.261L179.781 17.79L179.511 18.07V19.78H178.461V18.07L178.191 17.79L176.711 19.78Z" fill="#050038"/>
<path d="M184.335 19.78H183.325V14.95H184.375V18.2L186.595 14.95H187.645V19.78H186.595V16.44L184.335 19.78Z" fill="#050038"/>
<path d="M190.749 19.9C189.802 19.9 189.062 19.64 188.529 19.12L189.019 18.45C189.459 18.8433 190.036 19.04 190.749 19.04C191.116 19.04 191.402 18.9833 191.609 18.87C191.822 18.75 191.929 18.59 191.929 18.39C191.929 17.97 191.506 17.76 190.659 17.76H189.629V16.92H190.659C191.026 16.92 191.312 16.8667 191.519 16.76C191.732 16.6533 191.839 16.4967 191.839 16.29C191.839 16.1167 191.729 15.9733 191.509 15.86C191.289 15.7467 191.012 15.69 190.679 15.69C190.032 15.69 189.516 15.8833 189.129 16.27L188.609 15.63C189.122 15.1033 189.796 14.84 190.629 14.84C191.342 14.8333 191.902 14.95 192.309 15.19C192.722 15.4233 192.929 15.7433 192.929 16.15C192.929 16.4567 192.799 16.7167 192.539 16.93C192.286 17.1367 191.989 17.2633 191.649 17.31C191.989 17.3367 192.302 17.45 192.589 17.65C192.882 17.85 193.029 18.1233 193.029 18.47C193.029 18.89 192.822 19.2333 192.409 19.5C192.002 19.7667 191.449 19.9 190.749 19.9Z" fill="#050038"/>
<path d="M195.137 19.78H194.087V14.95H195.137V16.85H197.357V14.95H198.407V19.78H197.357V17.77H195.137V19.78Z" fill="#050038"/>
<path d="M200.781 19.78H199.771V14.95H200.821V18.2L203.041 14.95H204.091V19.78H203.041V16.44L200.781 19.78Z" fill="#050038"/>
<path d="M64.5 31.9C63.7667 31.9 63.1667 31.6633 62.7 31.19C62.2333 30.71 62 30.1 62 29.36C62 28.6267 62.2333 28.0233 62.7 27.55C63.1667 27.07 63.7667 26.83 64.5 26.83C65.3067 26.83 65.9233 27.1167 66.35 27.69L65.66 28.33C65.3933 27.95 65.0233 27.76 64.55 27.76C64.11 27.76 63.7567 27.91 63.49 28.21C63.2233 28.5033 63.09 28.8867 63.09 29.36C63.09 29.8333 63.2233 30.22 63.49 30.52C63.7567 30.82 64.11 30.97 64.55 30.97C65.01 30.97 65.38 30.78 65.66 30.4L66.35 31.04C65.9233 31.6133 65.3067 31.9 64.5 31.9Z" fill="#050038"/>
<path d="M69.4507 31.9C68.704 31.9 68.104 31.6567 67.6507 31.17C67.1974 30.6767 66.9707 30.0733 66.9707 29.36C66.9707 28.6467 67.1974 28.0467 67.6507 27.56C68.104 27.0733 68.704 26.83 69.4507 26.83C70.204 26.83 70.8074 27.0733 71.2607 27.56C71.714 28.0467 71.9407 28.6467 71.9407 29.36C71.9407 30.08 71.714 30.6833 71.2607 31.17C70.8074 31.6567 70.204 31.9 69.4507 31.9ZM69.4507 30.97C69.884 30.97 70.224 30.8167 70.4707 30.51C70.724 30.1967 70.8507 29.8133 70.8507 29.36C70.8507 28.9133 70.724 28.5367 70.4707 28.23C70.224 27.9167 69.884 27.76 69.4507 27.76C69.024 27.76 68.684 27.9167 68.4307 28.23C68.184 28.5367 68.0607 28.9133 68.0607 29.36C68.0607 29.8133 68.184 30.1967 68.4307 30.51C68.684 30.8167 69.024 30.97 69.4507 30.97Z" fill="#050038"/>
<path d="M74.9331 31.78H73.8831V27.87H72.5031V26.95H76.3231V27.87H74.9331V31.78Z" fill="#050038"/>
<path d="M79.7828 31.9C79.1428 31.9 78.6261 31.6367 78.2328 31.11V33.62H77.1828V26.95H78.2328V27.61C78.6195 27.09 79.1361 26.83 79.7828 26.83C80.4161 26.83 80.9295 27.0567 81.3228 27.51C81.7228 27.9633 81.9228 28.58 81.9228 29.36C81.9228 30.14 81.7228 30.76 81.3228 31.22C80.9295 31.6733 80.4161 31.9 79.7828 31.9ZM79.4728 30.97C79.8861 30.97 80.2161 30.82 80.4628 30.52C80.7095 30.22 80.8328 29.8333 80.8328 29.36C80.8328 28.8867 80.7095 28.5033 80.4628 28.21C80.2161 27.91 79.8861 27.76 79.4728 27.76C79.2328 27.76 78.9961 27.8233 78.7628 27.95C78.5295 28.0767 78.3528 28.23 78.2328 28.41V30.32C78.3528 30.5 78.5295 30.6533 78.7628 30.78C78.9961 30.9067 79.2328 30.97 79.4728 30.97Z" fill="#050038"/>
<path d="M82.7541 33.67L82.9141 32.73C83.0341 32.7833 83.1674 32.81 83.3141 32.81C83.6541 32.81 83.8841 32.67 84.0041 32.39L84.2441 31.84L82.2641 26.95H83.3841L84.7941 30.57L86.2041 26.95H87.3341L85.0041 32.65C84.7174 33.3633 84.1641 33.7267 83.3441 33.74C83.1241 33.74 82.9274 33.7167 82.7541 33.67Z" fill="#050038"/>
<path d="M87.4934 33.01V30.91C87.72 30.8567 87.89 30.7267 88.0034 30.52C88.1234 30.3067 88.22 29.9 88.2934 29.3L88.5834 26.95H92.3134V30.86H92.8434V33.01H91.7934V31.78H88.5434V33.01H87.4934ZM89.5134 27.87L89.3434 29.42C89.2767 30.06 89.0634 30.54 88.7034 30.86H91.2634V27.87H89.5134Z" fill="#050038"/>
<path d="M94.7562 31.78H93.7062V26.95H94.7562V28.85H96.9762V26.95H98.0262V31.78H96.9762V29.77H94.7562V31.78Z" fill="#050038"/>
<path d="M100.4 31.78H99.3898V26.95H100.44V30.2L102.66 26.95H103.71V31.78H102.66V28.44L100.4 31.78Z" fill="#050038"/>
<path d="M109.593 31.78H108.273L106.793 29.79L106.123 30.48V31.78H105.073V26.95H106.123V29.28L108.253 26.95H109.553L107.543 29.14L109.593 31.78Z" fill="#050038"/>
<path d="M112.468 31.9C111.722 31.9 111.122 31.6567 110.668 31.17C110.215 30.6767 109.988 30.0733 109.988 29.36C109.988 28.6467 110.215 28.0467 110.668 27.56C111.122 27.0733 111.722 26.83 112.468 26.83C113.222 26.83 113.825 27.0733 114.278 27.56C114.732 28.0467 114.958 28.6467 114.958 29.36C114.958 30.08 114.732 30.6833 114.278 31.17C113.825 31.6567 113.222 31.9 112.468 31.9ZM112.468 30.97C112.902 30.97 113.242 30.8167 113.488 30.51C113.742 30.1967 113.868 29.8133 113.868 29.36C113.868 28.9133 113.742 28.5367 113.488 28.23C113.242 27.9167 112.902 27.76 112.468 27.76C112.042 27.76 111.702 27.9167 111.448 28.23C111.202 28.5367 111.078 28.9133 111.078 29.36C111.078 29.8133 111.202 30.1967 111.448 30.51C111.702 30.8167 112.042 30.97 112.468 30.97Z" fill="#050038"/>
<path d="M118.981 31.78H116.021V26.95H118.911C119.357 26.95 119.707 27.0667 119.961 27.3C120.214 27.5333 120.341 27.83 120.341 28.19C120.341 28.47 120.264 28.7067 120.111 28.9C119.957 29.0933 119.764 29.2233 119.531 29.29C119.791 29.35 120.007 29.4933 120.181 29.72C120.354 29.94 120.441 30.19 120.441 30.47C120.441 30.8567 120.311 31.1733 120.051 31.42C119.797 31.66 119.441 31.78 118.981 31.78ZM118.761 30.86C118.947 30.86 119.094 30.8133 119.201 30.72C119.307 30.62 119.361 30.4867 119.361 30.32C119.361 30.1667 119.307 30.0367 119.201 29.93C119.094 29.8233 118.947 29.77 118.761 29.77H117.071V30.86H118.761ZM118.731 28.85C118.897 28.85 119.027 28.8067 119.121 28.72C119.221 28.6267 119.271 28.51 119.271 28.37C119.271 28.2167 119.221 28.0967 119.121 28.01C119.027 27.9167 118.897 27.87 118.731 27.87H117.071V28.85H118.731Z" fill="#050038"/>
<path d="M127.272 31.78H124.312V26.95H127.202C127.648 26.95 127.998 27.0667 128.252 27.3C128.505 27.5333 128.632 27.83 128.632 28.19C128.632 28.47 128.555 28.7067 128.402 28.9C128.248 29.0933 128.055 29.2233 127.822 29.29C128.082 29.35 128.298 29.4933 128.472 29.72C128.645 29.94 128.732 30.19 128.732 30.47C128.732 30.8567 128.602 31.1733 128.342 31.42C128.088 31.66 127.732 31.78 127.272 31.78ZM127.052 30.86C127.238 30.86 127.385 30.8133 127.492 30.72C127.598 30.62 127.652 30.4867 127.652 30.32C127.652 30.1667 127.598 30.0367 127.492 29.93C127.385 29.8233 127.238 29.77 127.052 29.77H125.362V30.86H127.052ZM127.022 28.85C127.188 28.85 127.318 28.8067 127.412 28.72C127.512 28.6267 127.562 28.51 127.562 28.37C127.562 28.2167 127.512 28.0967 127.412 28.01C127.318 27.9167 127.188 27.87 127.022 27.87H125.362V28.85H127.022Z" fill="#050038"/>
<path d="M134.034 31.78H132.984V31.26C132.611 31.6867 132.091 31.9 131.424 31.9C130.984 31.9 130.594 31.76 130.254 31.48C129.914 31.1933 129.744 30.8 129.744 30.3C129.744 29.7867 129.911 29.3967 130.244 29.13C130.584 28.8633 130.978 28.73 131.424 28.73C132.111 28.73 132.631 28.9367 132.984 29.35V28.63C132.984 28.35 132.881 28.13 132.674 27.97C132.468 27.81 132.194 27.73 131.854 27.73C131.314 27.73 130.838 27.9333 130.424 28.34L129.994 27.61C130.541 27.09 131.218 26.83 132.024 26.83C132.618 26.83 133.101 26.97 133.474 27.25C133.848 27.53 134.034 27.9733 134.034 28.58V31.78ZM131.834 31.18C132.361 31.18 132.744 31.0133 132.984 30.68V29.95C132.744 29.6167 132.361 29.45 131.834 29.45C131.534 29.45 131.288 29.53 131.094 29.69C130.901 29.85 130.804 30.06 130.804 30.32C130.804 30.58 130.901 30.79 131.094 30.95C131.288 31.1033 131.534 31.18 131.834 31.18Z" fill="#050038"/>
<path d="M140.896 26.95H141.946V31.78H135.396V26.95H136.446V30.86H138.146V26.95H139.196V30.86H140.896V26.95Z" fill="#050038"/>
<path d="M144.316 31.78H143.306V26.95H144.356V30.2L146.576 26.95H147.626V31.78H146.576V28.44L144.316 31.78Z" fill="#050038"/>
<path d="M153.219 31.78H152.039L150.789 30L149.529 31.78H148.359L150.129 29.3L148.459 26.95H149.639L150.789 28.59L151.929 26.95H153.109L151.439 29.3L153.219 31.78Z" fill="#050038"/>
<path d="M161.039 31.78H159.719L158.239 29.79L157.569 30.48V31.78H156.519V26.95H157.569V29.28L159.699 26.95H160.999L158.989 29.14L161.039 31.78Z" fill="#050038"/>
<path d="M163.914 31.9C163.167 31.9 162.567 31.6567 162.114 31.17C161.66 30.6767 161.434 30.0733 161.434 29.36C161.434 28.6467 161.66 28.0467 162.114 27.56C162.567 27.0733 163.167 26.83 163.914 26.83C164.667 26.83 165.27 27.0733 165.724 27.56C166.177 28.0467 166.404 28.6467 166.404 29.36C166.404 30.08 166.177 30.6833 165.724 31.17C165.27 31.6567 164.667 31.9 163.914 31.9ZM163.914 30.97C164.347 30.97 164.687 30.8167 164.934 30.51C165.187 30.1967 165.314 29.8133 165.314 29.36C165.314 28.9133 165.187 28.5367 164.934 28.23C164.687 27.9167 164.347 27.76 163.914 27.76C163.487 27.76 163.147 27.9167 162.894 28.23C162.647 28.5367 162.524 28.9133 162.524 29.36C162.524 29.8133 162.647 30.1967 162.894 30.51C163.147 30.8167 163.487 30.97 163.914 30.97Z" fill="#050038"/>
<path d="M172.876 31.78H171.826V28.42L170.386 31.78H169.966L168.516 28.42V31.78H167.466V26.95H168.836L170.176 30.07L171.496 26.95H172.876V31.78Z" fill="#050038"/>
<path d="M178.554 31.78H177.504V27.87H175.284V31.78H174.234V26.95H178.554V31.78Z" fill="#050038"/>
<path d="M183.917 31.78H182.867V31.26C182.494 31.6867 181.974 31.9 181.307 31.9C180.867 31.9 180.477 31.76 180.137 31.48C179.797 31.1933 179.627 30.8 179.627 30.3C179.627 29.7867 179.794 29.3967 180.127 29.13C180.467 28.8633 180.861 28.73 181.307 28.73C181.994 28.73 182.514 28.9367 182.867 29.35V28.63C182.867 28.35 182.764 28.13 182.557 27.97C182.351 27.81 182.077 27.73 181.737 27.73C181.197 27.73 180.721 27.9333 180.307 28.34L179.877 27.61C180.424 27.09 181.101 26.83 181.907 26.83C182.501 26.83 182.984 26.97 183.357 27.25C183.731 27.53 183.917 27.9733 183.917 28.58V31.78ZM181.717 31.18C182.244 31.18 182.627 31.0133 182.867 30.68V29.95C182.627 29.6167 182.244 29.45 181.717 29.45C181.417 29.45 181.171 29.53 180.977 29.69C180.784 29.85 180.687 30.06 180.687 30.32C180.687 30.58 180.784 30.79 180.977 30.95C181.171 31.1033 181.417 31.18 181.717 31.18Z" fill="#050038"/>
<path d="M186.329 31.78H185.279V26.95H186.329V28.85H188.549V26.95H189.599V31.78H188.549V29.77H186.329V31.78Z" fill="#050038"/>
<path d="M191.972 31.78H190.962V26.95H192.012V30.2L194.232 26.95H195.282V31.78H194.232V28.44L191.972 31.78Z" fill="#050038"/>
<path d="M197.656 31.78H196.646V26.95H197.696V30.2L199.916 26.95H200.966V31.78H199.916V28.44L197.656 31.78ZM200.556 25.56C200.122 26.1467 199.539 26.44 198.806 26.44C198.079 26.44 197.492 26.1467 197.046 25.56L197.526 25.16C197.846 25.6 198.272 25.82 198.806 25.82C199.339 25.82 199.762 25.6 200.076 25.16L200.556 25.56Z" fill="#050038"/>
</svg>
