<svg width="14" height="24" viewBox="0 0 14 24" fill="none" xmlns="http://www.w3.org/2000/svg">
<path fill-rule="evenodd" clip-rule="evenodd" d="M0.780339 10.4521C0.452265 10.7802 0.267962 11.2253 0.267962 11.6893C0.267962 12.1533 0.452265 12.5984 0.780339 12.9266L10.6801 22.8263C10.8415 22.9935 11.0346 23.1268 11.2481 23.2185C11.4616 23.3102 11.6913 23.3585 11.9236 23.3605C12.156 23.3625 12.3864 23.3182 12.6015 23.2302C12.8166 23.1423 13.012 23.0123 13.1763 22.848C13.3406 22.6837 13.4705 22.4883 13.5585 22.2732C13.6465 22.0582 13.6908 21.8277 13.6888 21.5954C13.6868 21.363 13.6385 21.1334 13.5468 20.9199C13.4551 20.7063 13.3217 20.5132 13.1546 20.3518L4.49209 11.6893L13.1546 3.02681C13.4734 2.69675 13.6498 2.2547 13.6458 1.79586C13.6418 1.33702 13.4577 0.898092 13.1333 0.573627C12.8088 0.249165 12.3699 0.0651169 11.911 0.0611305C11.4522 0.0571423 11.0101 0.233532 10.6801 0.552309L0.780339 10.4521Z" fill="currentColor"/>
</svg>
