<svg width="8" height="14" viewBox="0 0 8 14" fill="none" xmlns="http://www.w3.org/2000/svg">
<path fill-rule="evenodd" clip-rule="evenodd" d="M7.52949 6.44598C7.71696 6.63351 7.82227 6.88781 7.82227 7.15298C7.82227 7.41814 7.71696 7.67245 7.52949 7.85998L1.87249 13.517C1.78024 13.6125 1.6699 13.6887 1.54789 13.7411C1.42589 13.7935 1.29467 13.8211 1.16189 13.8222C1.02911 13.8234 0.897429 13.7981 0.774533 13.7478C0.651637 13.6975 0.539984 13.6233 0.446091 13.5294C0.352199 13.4355 0.277945 13.3238 0.227665 13.2009C0.177384 13.078 0.152082 12.9464 0.153236 12.8136C0.15439 12.6808 0.181976 12.5496 0.234385 12.4276C0.286794 12.3056 0.362976 12.1952 0.458486 12.103L5.40849 7.15298L0.458486 2.20298C0.276328 2.01437 0.175534 1.76177 0.177812 1.49958C0.180091 1.23738 0.285259 0.986567 0.470667 0.801159C0.656076 0.615751 0.906888 0.510581 1.16909 0.508303C1.43128 0.506024 1.68388 0.606818 1.87249 0.788977L7.52949 6.44598Z" fill="currentColor"/>
</svg>
