<svg width="22" height="28" viewBox="0 0 22 28" fill="none" xmlns="http://www.w3.org/2000/svg">
<path d="M10.1135 7.73682C13.0152 7.73682 15.3671 10.0887 15.3671 12.9904V26.1245C15.3671 26.6078 14.9748 27.0001 14.4915 27.0001H5.73547C5.25213 27.0001 4.85986 26.6078 4.85986 26.1245V12.9904L4.86337 12.7934C4.96669 9.98361 7.27828 7.73682 10.1135 7.73682Z" fill="black" stroke="black" stroke-width="1.5"/>
<path d="M1 20.2991L4.57388 20.2991" stroke="black" stroke-width="2"/>
<path d="M10.1135 4.23438V7.73679" stroke="black" stroke-width="1.5"/>
<path d="M16.2427 4.23438H10.1135C5.2775 4.23438 1.35742 8.15445 1.35742 12.9904V24.3732" stroke="black" stroke-width="2" stroke-linecap="round"/>
<path d="M10.1135 6.98557C11.6333 6.98557 12.8647 5.75419 12.8647 4.23436C12.8647 2.71453 11.6333 1.48315 10.1135 1.48315C8.59368 1.48315 7.3623 2.71453 7.3623 4.23436C7.3623 5.75419 8.59368 6.98557 10.1135 6.98557Z" fill="#F4BC15" stroke="black" stroke-width="2"/>
<path d="M10.1135 6.73557C11.4953 6.73557 12.6147 5.61611 12.6147 4.23436C12.6147 2.85261 11.4953 1.73315 10.1135 1.73315C8.73176 1.73315 7.6123 2.85261 7.6123 4.23436C7.6123 5.61611 8.73176 6.73557 10.1135 6.73557Z" stroke="black" stroke-width="1.5"/>
<path d="M21.7284 5.53775V2.28078C21.7284 1.63021 21.1171 1.15285 20.4859 1.31063L13.9086 2.95496C13.4634 3.06625 13.1511 3.46624 13.1511 3.92511V4.44153C13.1511 4.93037 13.5045 5.34756 13.9867 5.42792L20.564 6.52414C21.1736 6.62573 21.7284 6.15569 21.7284 5.53775Z" fill="black"/>
</svg>
