<svg width="29" height="26" viewBox="0 0 29 26" fill="none" xmlns="http://www.w3.org/2000/svg">
<path d="M9.30337 2.28066L16.7016 6.56058C17.2862 6.89808 18.0319 6.69754 18.3675 6.11302C18.7056 5.52851 18.5054 4.78013 17.9221 4.44385L10.5238 0.163929C9.93922 -0.173573 9.19353 0.0269714 8.85669 0.610264C8.51985 1.19356 8.72 1.94193 9.30337 2.28066ZM16.0926 7.61956L8.69437 3.33963L4.42285 10.7525L11.8211 15.0324L16.0926 7.61956ZM2.59098 13.9294L9.98926 18.2093C10.5726 18.5468 11.3195 18.3463 11.6551 17.7618C11.9908 17.1772 11.7918 16.4289 11.2097 16.0926L3.81142 11.8127C3.22683 11.4752 2.48114 11.6757 2.1443 12.259C1.80624 12.8435 2.00761 13.5919 2.59098 13.9294ZM28.0846 17.3802L14.5671 10.267L13.3467 12.3849L26.254 20.5572C27.129 21.0634 28.2494 20.7638 28.7547 19.8858C29.2599 19.0078 28.9597 17.8865 28.0846 17.3802ZM14.6855 23.5543C14.6855 22.8781 14.1387 22.3315 13.4651 22.3315H2.48114C1.80624 22.3315 1.26071 22.8781 1.26071 23.5543C1.26071 24.2293 1.26071 24.7772 1.26071 24.7772L0 24.7515L0.0402743 26H15.9059L15.9633 24.8285L14.7624 24.7772C14.7624 24.7772 14.6855 24.2293 14.6855 23.5543Z" fill="black"/>
</svg>
