<svg width="23" height="26" viewBox="0 0 23 26" fill="none" xmlns="http://www.w3.org/2000/svg">
<path fill-rule="evenodd" clip-rule="evenodd" d="M0.467406 4.00713C1.10694e-07 4.70636 0 6.78479 0 10.9417V12.9888C0 20.3182 5.24824 23.8751 8.54107 25.3855C9.43428 25.7951 9.88087 26 11.1429 26C12.4048 26 12.8514 25.7951 13.7446 25.3855C17.0374 23.8751 22.2857 20.3182 22.2857 12.9888V10.9417C22.2857 6.78479 22.2857 4.70636 21.8183 4.00713C21.351 3.3079 19.4897 2.63895 15.7673 1.30103L15.0581 1.04614C13.1176 0.348712 12.1474 0 11.1429 0C10.1383 0 9.16809 0.348712 7.22765 1.04614L6.51846 1.30103C2.79601 2.63895 0.934799 3.3079 0.467406 4.00713ZM16.6524 11.635L12.4429 8.32C11.6725 7.71333 10.6132 7.71333 9.84286 8.32L5.63333 11.635C5.22307 11.958 5.13991 12.5692 5.44762 13C5.75532 13.4308 6.33735 13.518 6.74762 13.195L10.9571 9.88C11.0672 9.79333 11.2185 9.79333 11.3286 9.88L15.5381 13.195C15.9484 13.518 16.5304 13.4308 16.8381 13C17.1458 12.5692 17.0627 11.958 16.6524 11.635ZM14.1762 14.885L11.7 12.935C11.3698 12.675 10.9159 12.675 10.5857 12.935L8.10952 14.885C7.69926 15.208 7.6161 15.8192 7.92381 16.25C8.23151 16.6808 8.8135 16.768 9.22381 16.445L11.1429 14.9338L13.0619 16.445C13.4722 16.768 14.0542 16.6808 14.3619 16.25C14.6696 15.8192 14.5865 15.208 14.1762 14.885Z" fill="black"/>
</svg>
