<svg width="29" height="28" viewBox="0 0 29 28" fill="none" xmlns="http://www.w3.org/2000/svg">
<path d="M18.5871 21.2368L18.5871 21.2369C18.4338 21.3893 18.1835 21.3894 18.0302 21.2369L14.7132 17.9375C14.7132 17.9375 14.7132 17.9375 14.7132 17.9375C14.5622 17.7873 14.5623 17.5455 14.7132 17.3954L14.1622 16.8415L14.7132 17.3954L15.5426 16.5703L16.0993 16.0164L15.5425 15.4625L13.8832 13.8121L13.3323 13.264L12.7813 13.8121L2.50985 24.029L1.9589 23.4809L12.2245 13.2699L12.7814 12.716L12.2245 12.1621L10.5658 10.5122L10.0149 9.96413L9.46389 10.5122L8.63451 11.3371C8.48122 11.4896 8.23094 11.4896 8.07765 11.3371L4.76063 8.03775C4.60961 7.88752 4.60965 7.64572 4.76058 7.49559L4.76059 7.49557L11.3946 0.895647C11.3946 0.895642 11.3946 0.895638 11.3946 0.895633C11.5479 0.743152 11.7982 0.743141 11.9515 0.895561L12.4989 0.344989L11.9515 0.895562L15.2696 4.19482C15.4206 4.34502 15.4207 4.58684 15.2697 4.73703L14.4401 5.56218L13.8833 6.11603L14.4401 6.66994L19.4159 11.6202L19.9669 12.1684L20.5179 11.6203L21.3472 10.7953C21.5005 10.6428 21.7508 10.6428 21.9041 10.7952L25.2223 14.0946C25.3733 14.2448 25.3733 14.4866 25.2224 14.6368L18.5871 21.2368ZM7.80512 9.97001L8.35608 10.518L8.90704 9.97001L9.73192 9.14951L9.732 9.1496L9.74159 9.13972C9.74389 9.13735 9.74609 9.13505 9.74818 9.13285L11.0619 7.82659L11.062 7.82649L13.8834 5.02014L14.4403 4.46614L13.8833 3.91224L12.2242 2.26255L11.6732 1.71466L11.1223 2.26269L6.14674 7.21273L5.58997 7.76663L6.14678 8.32049L7.80512 9.97001ZM11.6199 8.36761L11.6198 8.36771L11.1226 8.86226L10.5657 9.41616L11.1226 9.97007L16.0989 14.9198L16.6498 15.4679L17.2008 14.9198L18.8591 13.2703L19.4159 12.7165L18.8592 12.1625L13.8836 7.21251L13.3327 6.66447L12.7817 7.21237L11.6199 8.36761ZM22.1768 12.1623L21.6258 11.6144L21.0749 12.1624L16.0993 17.1125L15.5426 17.6664L16.0994 18.2202L17.7577 19.8698L18.3087 20.4178L18.8596 19.8698L23.8359 14.9199L24.3929 14.3659L23.8359 13.812L22.1768 12.1623Z" fill="#1A1A1A" stroke="black" stroke-width="1.56252"/>
<path d="M17.1219 26.4479H27.6782C27.8985 26.4479 28.0699 26.6244 28.0699 26.8333C28.0699 27.0423 27.8985 27.2187 27.6782 27.2187H17.1219C16.9016 27.2187 16.7302 27.0423 16.7302 26.8333C16.7302 26.6244 16.9016 26.4479 17.1219 26.4479Z" fill="#1A1A1A" stroke="black" stroke-width="1.56252"/>
<path d="M20.2505 23.3318C20.2505 23.1229 20.4219 22.9464 20.6421 22.9464H24.1609C24.3812 22.9464 24.5526 23.1229 24.5526 23.3318C24.5526 23.5408 24.3812 23.7172 24.1609 23.7172H20.6421C20.4219 23.7172 20.2505 23.5407 20.2505 23.3318Z" fill="#1A1A1A" stroke="black" stroke-width="1.56252"/>
</svg>
