<svg width="21" height="22" viewBox="0 0 21 22" fill="none" xmlns="http://www.w3.org/2000/svg">
<path d="M15.7303 15.003C16.4671 14.5191 17.4348 15.0469 17.4348 15.9267V17.3454C17.4348 18.742 16.3461 20.2376 15.0374 20.6775L11.5293 21.8432C10.9135 22.0522 9.91272 22.0522 9.30787 21.8432L5.79974 20.6775C4.48007 20.2376 3.40234 18.742 3.40234 17.3454V15.9157C3.40234 15.0469 4.3701 14.5191 5.09592 14.992L7.36135 16.4656C8.23014 17.0484 9.32986 17.3344 10.4296 17.3344C11.5293 17.3344 12.629 17.0484 13.4978 16.4656L15.7303 15.003Z" fill="black"/>
<path d="M19.1944 4.90752L12.607 0.585604C11.4193 -0.195201 9.46179 -0.195201 8.27409 0.585604L1.65374 4.90752C-0.468728 6.28218 -0.468728 9.3944 1.65374 10.7801L3.4133 11.9238L8.27409 15.091C9.46179 15.8718 11.4193 15.8718 12.607 15.091L17.4348 11.9238L18.9414 10.934V14.2992C18.9414 14.7501 19.3153 15.124 19.7662 15.124C20.2171 15.124 20.591 14.7501 20.591 14.2992V8.88853C21.0309 7.46988 20.58 5.82029 19.1944 4.90752Z" fill="black"/>
</svg>
