<svg width="52" height="52" viewBox="0 0 52 52" fill="none" xmlns="http://www.w3.org/2000/svg">
<rect width="52" height="52" rx="15" fill="#F4BC15"/>
<path d="M22.944 26.732C21.6013 25.4867 19.3973 25.7347 18.3947 27.396C17.744 28.476 17.928 29.8693 18.7213 30.848L21.1053 33.92C21.5573 34.5013 21.452 35.3387 20.8693 35.7907C20.288 36.2427 19.4507 36.1373 18.9987 35.5547L16.6147 32.4827C15.1187 30.6387 14.9013 28.0227 16.1107 26.0187C16.2747 25.7467 16.4653 25.4973 16.6667 25.2613V17.4693C16.6667 15.7253 15.412 14.1373 13.6773 13.9627C11.6827 13.7627 10 15.324 10 17.2787V31.3413C10 34.1867 11.1373 36.9147 13.1587 38.9187L15.548 41.2853C16.0413 41.7427 16.688 41.996 17.3613 41.996H27.3333C28.0693 41.996 28.6667 41.3987 28.6667 40.6627V35.5693C28.6667 33.3627 27.7547 31.2533 26.1467 29.7413L22.944 26.7307V26.732ZM38.3227 13.9653C36.588 14.1387 35.3333 15.728 35.3333 17.472V25.264C35.5347 25.5 35.724 25.748 35.8893 26.0213C37.0973 28.0253 36.8813 30.6413 35.3853 32.4853L31.3347 36.5173V40.6667C31.3347 41.136 31.2387 41.5813 31.0893 42H34.6413C35.3133 42 35.9613 41.7467 36.4547 41.2893L38.8413 38.9267C40.864 36.924 42.0027 34.1947 42.0027 31.3467V17.2813C42.0027 15.3267 40.3213 13.7653 38.3253 13.9653H38.3227ZM33.6053 27.3973C32.6027 25.736 30.3987 25.488 29.056 26.7333L27.9467 27.776L27.9733 27.8013C29.4947 29.232 30.5347 31.0867 31.0173 33.092L33.2773 30.8493C34.0707 29.8707 34.2547 28.476 33.604 27.3973H33.6053ZM32.6707 13.6667C32.6707 16.5507 28.9107 20.1347 27.0373 21.6373C26.4333 22.1213 25.5747 22.1213 24.9707 21.6373C23.0973 20.1333 19.3373 16.5507 19.3373 13.6667C19.2493 11.7347 20.74 10.096 22.6707 10C24.6013 10.096 26.092 11.7347 26.004 13.6667C25.916 11.7347 27.4067 10.096 29.3373 10C31.268 10.096 32.7587 11.7347 32.6707 13.6667Z" fill="white"/>
</svg>
