<svg width="24" height="25" viewBox="0 0 24 25" fill="none" xmlns="http://www.w3.org/2000/svg">
<path d="M22.3439 16.685C22.6749 16.0978 22.8656 15.416 22.8656 14.6242C22.8656 10.5247 20.5761 6.9579 17.2012 5.12201V4.61444C17.2012 3.03388 15.9145 1.75263 14.3274 1.75263H14.234C13.9916 0.747362 13.0838 0 12 0C10.9162 0 10.0083 0.747362 9.7661 1.75263H9.67274C8.08558 1.75263 6.79898 3.03393 6.79898 4.61444V5.12201C3.42396 6.9579 1.1344 10.5247 1.1344 14.6242C1.1344 15.416 1.32519 16.0978 1.65611 16.685C0.604173 17.593 0 18.6514 0 19.7818C0 23.1546 5.37259 25 12 25C18.6274 25 24 23.1547 24 19.7818C24 18.6514 23.3958 17.593 22.3439 16.685ZM11.149 2.28833C11.149 1.82026 11.53 1.44077 12 1.44077C12.4701 1.44077 12.8511 1.82021 12.8511 2.28833V8.61405C12.8511 9.08211 12.4701 9.4616 12 9.4616C11.53 9.4616 11.149 9.08216 11.149 8.61405V2.28833ZM19.558 19.4401C17.0373 21.4071 12.4091 21.358 12 21.3493C9.69167 21.3976 6.13812 20.9025 4.25318 19.2857C3.89707 18.9802 3.85706 18.4451 4.1638 18.0904C4.47054 17.7358 5.00794 17.696 5.3641 18.0014C7.39918 19.7471 11.9327 19.6556 11.9783 19.6544C11.9927 19.654 12.0079 19.654 12.0223 19.6544C12.0656 19.6551 16.4096 19.7435 18.5081 18.106C18.878 17.8173 19.413 17.8819 19.7029 18.2503C19.9928 18.6187 19.9279 19.1514 19.558 19.4401Z" fill="black"/>
</svg>
