<svg width="52" height="52" viewBox="0 0 52 52" fill="none" xmlns="http://www.w3.org/2000/svg">
<rect width="52" height="52" rx="15" fill="#F4BC15"/>
<path d="M41.6265 39.74L40.1897 38.3033L37.8818 35.9993L41.6025 32.2786C42.1231 31.7572 42.1224 30.9126 41.601 30.392C41.4636 30.2549 41.2979 30.1493 41.1155 30.0828L29.1504 25.7419C27.7646 25.241 26.2352 25.9584 25.7343 27.3442C25.5226 27.9299 25.5225 28.5712 25.7339 29.157L30.0869 41.1221C30.2423 41.5505 30.6055 41.8699 31.0502 41.9693C31.1453 41.99 31.2423 42.0002 31.3396 42C31.6934 41.9999 32.0327 41.8593 32.2828 41.6091L35.9995 37.8818L38.3034 40.1857L39.7402 41.6225C40.2702 42.1343 41.1147 42.1196 41.6265 41.5897C42.1258 41.0727 42.1258 40.2531 41.6265 39.7361L41.6265 39.74Z" fill="white"/>
<path fill-rule="evenodd" clip-rule="evenodd" d="M31.3206 23.7871C31.329 23.6369 31.3333 23.4856 31.3333 23.3333C31.3333 18.9151 27.7515 15.3333 23.3333 15.3333C18.915 15.3333 15.3333 18.9151 15.3333 23.3333C15.3333 27.7516 18.915 31.3333 23.3333 31.3333C23.5041 31.3333 23.6736 31.328 23.8418 31.3174L22.866 27.1666C22.6 26.4292 22.6001 25.6219 22.8665 24.8846C23.4967 23.1401 25.421 22.2371 27.1647 22.8676L31.3206 23.7871Z" fill="white"/>
<path d="M23.3405 36.6811C15.9728 36.6811 10 30.7083 10 23.3406C10 15.9729 15.9728 10 23.3405 10C30.7082 10 36.6811 15.9728 36.6811 23.3406C36.6811 24.0774 36.0838 24.6746 35.347 24.6746C34.6103 24.6746 34.0129 24.0774 34.0129 23.3406C34.0129 17.4463 29.2347 12.6681 23.3405 12.6681C17.4463 12.6681 12.6681 17.4463 12.6681 23.3406C12.6681 29.2348 17.4463 34.013 23.3406 34.013C24.0773 34.013 24.6746 34.6103 24.6746 35.347C24.6746 36.0838 24.0773 36.6811 23.3405 36.6811Z" fill="white"/>
</svg>
