<svg width="25" height="25" viewBox="0 0 25 25" fill="none" xmlns="http://www.w3.org/2000/svg">
<path d="M21.3768 6.79126H3.17317C1.42793 6.79126 0 8.21899 0 9.96443V20.9467C0 22.692 1.42793 24.1199 3.17317 24.1199H21.3768C23.1221 24.1199 24.55 22.692 24.55 20.9467V9.96443C24.55 8.21904 23.1221 6.79126 21.3768 6.79126ZM16.8871 17.0351H13.8546V20.0676H10.6954V17.0351H7.66276V13.8759H10.6954V10.8434H13.8546V13.8759H16.8871V17.0351ZM22.9308 20.9473C22.9308 21.8051 22.2349 22.501 21.3771 22.501H17.6104L22.9308 17.1805V20.9473Z" fill="black"/>
<path d="M4.87671 4.6992V3C4.87671 1.89543 5.77214 1 6.87671 1H17.6735C18.7781 1 19.6735 1.89543 19.6735 3V4.6992" stroke="black" stroke-width="2" stroke-linecap="round"/>
</svg>
