<svg width="52" height="52" viewBox="0 0 52 52" fill="none" xmlns="http://www.w3.org/2000/svg">
<rect width="52" height="52" rx="15" fill="#F4BC15"/>
<path d="M19.5173 20.1573L21.076 26.6773H17.648L19.1533 20.1453C19.1667 20.084 19.1853 20.0013 19.3333 20.0013C19.4813 20.0013 19.5 20.0827 19.5173 20.1573ZM42 17.3333V33.3333C42 36.2747 39.608 38.6667 36.6667 38.6667H32.8627L27.7347 42.9067C27.252 43.336 26.6347 43.5533 26.012 43.5533C25.3773 43.5533 24.7373 43.328 24.228 42.8747L19.2307 38.6667H15.3333C12.392 38.6667 10 36.2747 10 33.3333V17.3333C10 14.392 12.392 12 15.3333 12H36.6667C39.608 12 42 14.392 42 17.3333ZM25.0147 31.6907L22.1133 19.552C21.8107 18.2253 20.6933 17.3347 19.3333 17.3347C17.9733 17.3347 16.856 18.2253 16.5533 19.5493L13.752 31.7013C13.5867 32.4187 14.0347 33.1347 14.752 33.3C15.4707 33.4693 16.1853 33.0187 16.3507 32.3L17.032 29.344H21.712L22.4213 32.3107C22.568 32.9227 23.1147 33.3347 23.7173 33.3347C23.82 33.3347 23.924 33.3227 24.028 33.2987C24.744 33.1267 25.1867 32.408 25.0147 31.692V31.6907ZM35.3333 30.6667C35.3333 29.9293 34.7373 29.3333 34 29.3333H28.6667C27.9293 29.3333 27.3333 29.9293 27.3333 30.6667C27.3333 31.404 27.9293 32 28.6667 32H34C34.7373 32 35.3333 31.404 35.3333 30.6667ZM38 25.3333C38 24.596 37.404 24 36.6667 24H28.6667C27.9293 24 27.3333 24.596 27.3333 25.3333C27.3333 26.0707 27.9293 26.6667 28.6667 26.6667H36.6667C37.404 26.6667 38 26.0707 38 25.3333ZM38 20C38 19.2627 37.404 18.6667 36.6667 18.6667H28.6667C27.9293 18.6667 27.3333 19.2627 27.3333 20C27.3333 20.7373 27.9293 21.3333 28.6667 21.3333H36.6667C37.404 21.3333 38 20.7373 38 20Z" fill="white"/>
</svg>
