<svg width="27" height="32" viewBox="0 0 27 32" fill="none" xmlns="http://www.w3.org/2000/svg">
<path fill-rule="evenodd" clip-rule="evenodd" d="M13.3333 0L23.9253 3.51067C24.7234 3.77522 25.4178 4.2845 25.9099 4.96618C26.402 5.64785 26.6668 6.46726 26.6667 7.308V15.988C26.6667 27.424 14.2827 31.6613 13.7547 31.8373L13.264 32L12.792 31.7907C12.2667 31.56 3.43476e-08 26.02 3.43476e-08 15.988V7.308C-0.000110112 6.46726 0.264695 5.64785 0.756803 4.96618C1.24891 4.2845 1.9433 3.77522 2.74133 3.51067L13.3333 0ZM21 17.375H15.375V23H11.625V17.375H6V13.625H11.625V8H15.375V13.625H21V17.375Z" fill="#F4BC15"/>
</svg>
