<svg width="26" height="27" viewBox="0 0 26 27" fill="none" xmlns="http://www.w3.org/2000/svg">
<g clip-path="url(#clip0_2002_272)">
<path d="M4.04168 18.4501L6.73075 13.7162L8.93323 14.9883L5.93795 9.79565L0 9.8085L2.11641 11.0584C2.11641 11.0584 0.854293 13.1792 0.575504 13.6675C0.126852 14.4503 -0.103391 15.5962 0.395027 16.393C0.470996 16.5181 1.90354 19.0697 3.05901 21.0744C3.08303 20.1849 3.53666 19.3569 4.04407 18.4501L4.04168 18.4501Z" fill="black"/>
<path d="M3.83551 22.4242C3.89975 22.5348 3.9646 22.6449 4.02543 22.7533C4.31991 23.2628 5.02887 23.9321 7.78502 23.8836C8.38678 23.8724 10.7837 23.8891 11.4988 23.8948L11.5334 18.5043L4.5171 18.4557C3.72435 19.8687 3.05221 21.066 3.83551 22.4242Z" fill="black"/>
<path d="M9.70263 0.693115H9.32324C8.73662 0.693115 7.7996 0.971904 6.46487 3.38386C6.17379 3.9096 4.96083 5.97741 4.59937 6.59313L9.24839 9.31968L12.8019 3.26712C11.9721 1.87368 11.2715 0.693115 9.70263 0.693115Z" fill="black"/>
<path d="M19.5895 8.82749L22.5468 3.67944L20.4075 4.88798C20.4075 4.88798 19.1979 2.73191 18.9175 2.24858C18.4643 1.46807 17.5861 0.697059 16.6474 0.72834C16.5033 0.73225 13.575 0.697059 11.2609 0.694824C12.018 1.1613 12.5096 1.967 13.0387 2.86044L13.0409 2.85597L15.7982 7.55527L13.5946 8.82749H19.5895Z" fill="black"/>
<path d="M22.0473 18.4837L16.6004 18.5228V15.979L13.6024 21.1716L16.5814 26.3068L16.6066 23.8501C16.6066 23.8501 19.0766 23.8809 19.6371 23.8781C20.5399 23.8742 21.6451 23.5021 22.0882 22.6713C22.1569 22.5444 23.6514 20.0246 24.8091 18.025C24.0291 18.4474 23.0827 18.4692 22.0463 18.4821L22.0473 18.4837Z" fill="black"/>
<path d="M24.8795 12.5271C24.5711 12.0103 23.3872 9.92804 23.034 9.30505L18.3481 11.9685L21.8127 18.0719C23.433 18.0512 24.8057 18.0344 25.5902 16.6784C25.655 16.5661 25.7181 16.4566 25.7818 16.346C26.074 15.8387 26.3008 14.8889 24.8795 12.5271Z" fill="black"/>
</g>
<defs>
<clipPath id="clip0_2002_272">
<rect width="26" height="26" fill="white" transform="translate(0 0.5)"/>
</clipPath>
</defs>
</svg>
