<svg width="52" height="52" viewBox="0 0 52 52" fill="none" xmlns="http://www.w3.org/2000/svg">
<rect width="52" height="52" rx="15" fill="#F4BC15"/>
<path d="M30.3333 19.624C30.3333 20.78 28.904 22.6707 26.6027 24.556C26.4467 24.684 26.22 24.684 26.064 24.556C23.7627 22.6693 22.3333 20.78 22.3333 19.624C22.3333 18.728 22.932 18 23.6667 18C24.3107 18 25 18.3507 25 19.3333C25 20.0693 25.5973 20.6667 26.3333 20.6667C27.0693 20.6667 27.6667 20.0693 27.6667 19.3333C27.6667 18.3507 28.356 18 29 18C29.7347 18 30.3333 18.728 30.3333 19.624ZM13 38C13 40.2093 14.7907 42 17 42H33C36.6813 42 39.6667 39.0147 39.6667 35.3333V34H17C14.7907 34 13 35.7907 13 38ZM39.6667 16.6667V31.3333H17C16.7293 31.3333 16.4587 31.36 16.1933 31.4147C15.0333 31.5533 13.932 31.9973 13 32.7V16.6307C13 12.972 15.9653 10 19.6227 10H33C36.6813 10 39.6667 12.9853 39.6667 16.6667ZM33 19.624C33 17.2587 31.2053 15.3333 29 15.3333C27.9573 15.3333 27.0307 15.6933 26.3333 16.3027C25.636 15.6933 24.7093 15.3333 23.6667 15.3333C21.4613 15.3333 19.6667 17.2587 19.6667 19.624C19.6667 22.216 22.2267 24.8587 24.3733 26.62C24.9413 27.0853 25.6373 27.316 26.3333 27.316C27.0293 27.316 27.7253 27.084 28.2933 26.6187C30.44 24.86 33 22.2173 33 19.624Z" fill="white"/>
</svg>
