<svg width="20" height="23" viewBox="0 0 20 23" fill="none" xmlns="http://www.w3.org/2000/svg">
<path d="M3.9668 6.62561C2.86223 6.62561 1.9668 7.52104 1.9668 8.62561V21C1.9668 22.1046 2.86223 23 3.9668 23H16.0331C17.1377 23 18.0331 22.1046 18.0331 21V8.62561C18.0331 7.52104 17.1377 6.62561 16.0331 6.62561H3.9668ZM11.1668 19.5005C11.1668 20.145 10.6444 20.6674 9.99997 20.6674C9.35555 20.6674 8.83314 20.145 8.83314 19.5005V10.1251C8.83314 9.48069 9.35555 8.95828 9.99997 8.95828C10.6444 8.95828 11.1668 9.48069 11.1668 10.1251V19.5005Z" fill="black"/>
<path d="M0.800049 3.18182V3.09091C0.800049 2.53862 1.24777 2.09091 1.80005 2.09091H5.65459C6.20688 2.09091 6.65459 1.64319 6.65459 1.09091V1C6.65459 0.447715 7.10231 0 7.6546 0H12.3455C12.8978 0 13.3455 0.447715 13.3455 1V1.09091C13.3455 1.64319 13.7932 2.09091 14.3455 2.09091H18.2C18.7523 2.09091 19.2 2.53862 19.2 3.09091V3.18182C19.2 3.7341 18.7523 4.18182 18.2001 4.18182H1.80005C1.24776 4.18182 0.800049 3.7341 0.800049 3.18182Z" fill="black"/>
</svg>
