<svg width="42" height="42" viewBox="0 0 42 42" fill="none" xmlns="http://www.w3.org/2000/svg">
<g clip-path="url(#clip0_567_3140)">
<mask id="mask0_567_3140" style="mask-type:luminance" maskUnits="userSpaceOnUse" x="0" y="0" width="42" height="42">
<path d="M41.7922 0H0.208008V42H41.7922V0Z" fill="white"/>
</mask>
<g mask="url(#mask0_567_3140)">
<path fill-rule="evenodd" clip-rule="evenodd" d="M3.13114 2.95236C0.208008 5.90474 0.208008 10.6565 0.208008 20.16V21.84C0.208008 31.3435 0.208008 36.0953 3.13114 39.0476C6.05428 42 10.759 42 20.1684 42H21.8318C31.2412 42 35.9459 42 38.869 39.0476C41.7922 36.0953 41.7922 31.3435 41.7922 21.84V20.16C41.7922 10.6565 41.7922 5.90474 38.869 2.95236C35.9459 0 31.2412 0 21.8318 0H20.1684C10.759 0 6.05428 0 3.13114 2.95236ZM7.22542 12.7751C7.45064 23.6951 12.8565 30.2576 22.3343 30.2576H22.8715V24.0101C26.3542 24.36 28.9877 26.9326 30.0446 30.2576H34.9655C33.614 25.2876 30.0619 22.5401 27.844 21.4901C30.0619 20.1951 33.1807 17.0451 33.9257 12.7751H29.4553C28.485 16.2401 25.6091 19.3901 22.8715 19.6875V12.7751H18.401V24.885C15.6288 24.1851 12.1289 20.7901 11.9729 12.7751H7.22542Z" fill="#050038"/>
</g>
</g>
<defs>
<clipPath id="clip0_567_3140">
<rect width="42" height="42" fill="white"/>
</clipPath>
</defs>
</svg>
