<svg width="25" height="22" viewBox="0 0 25 22" fill="none" xmlns="http://www.w3.org/2000/svg">
<path d="M24.7564 19.3414L14.0507 0.901903C13.3521 -0.300634 11.647 -0.300634 10.9493 0.901903L0.243583 19.3414C-0.43776 20.5158 0.391064 22 1.72788 22H23.2721C24.6089 22 25.4378 20.5158 24.7564 19.3414ZM12.5 19.359C11.547 19.359 10.7751 18.5711 10.7751 17.5983C10.7751 16.6256 11.547 15.8377 12.5 15.8377C13.453 15.8377 14.2249 16.6256 14.2249 17.5983C14.2249 18.5711 13.453 19.359 12.5 19.359ZM14.2249 10.0072C14.2249 10.9536 14.0757 11.8938 13.7825 12.7908L13.635 13.2416C13.472 13.7407 13.0149 14.077 12.5 14.077C11.9851 14.077 11.528 13.7407 11.365 13.2416L11.2175 12.7908C10.9243 11.8938 10.7751 10.9536 10.7751 10.0072V7.375C10.7751 6.70067 11.3107 6.15398 11.9713 6.15398H13.0278C13.6893 6.15398 14.2249 6.70067 14.2249 7.375V10.0072Z" fill="black"/>
</svg>
